<svg width="23" height="21" viewBox="0 0 23 21" fill="none" xmlns="http://www.w3.org/2000/svg">
<path d="M2.01541 3.94871C1.59731 2.82857 1.18406 1.71648 0.688476 0.385206C1.52145 0.306232 2.30114 0.0918736 3.04533 0.183741C7.39744 0.720443 11.7447 1.23941 16.1404 1.28776C17.6336 1.30388 19.1301 1.48278 20.612 1.69069C21.227 1.77772 21.8356 2.07751 22.3926 2.3789C23.1222 2.77216 23.2239 3.48132 22.5378 3.88103C21.3126 4.59663 20.1487 5.40731 18.5748 5.43954C15.5254 5.50079 12.4776 5.73932 9.43307 5.96335C7.27316 6.12291 5.28596 5.7071 3.4489 4.54344C3.05663 4.29524 2.58042 4.17919 2.01703 3.95032L2.01541 3.94871Z" fill="#01C476"/>
<path d="M2.01541 11.1142C1.59731 9.99409 1.18406 8.88201 0.688476 7.55073C1.52145 7.47176 2.30114 7.2574 3.04533 7.34927C7.39744 7.88597 11.7447 8.40494 16.1404 8.45329C17.6336 8.46941 19.1301 8.64831 20.612 8.85622C21.227 8.94325 21.8356 9.24303 22.3926 9.54442C23.1222 9.93768 23.2239 10.6468 22.5378 11.0466C21.3126 11.7622 20.1487 12.5728 18.5748 12.6051C15.5254 12.6663 12.4776 12.9049 9.43307 13.1289C7.27316 13.2884 5.28596 12.8726 3.4489 11.709C3.05663 11.4608 2.58042 11.3447 2.01703 11.1158L2.01541 11.1142Z" fill="#01C476"/>
<path d="M2.01541 18.2795C1.59731 17.1594 1.18406 16.0473 0.688476 14.716C1.52145 14.637 2.30114 14.4227 3.04533 14.5146C7.39744 15.0513 11.7447 15.5702 16.1404 15.6186C17.6336 15.6347 19.1301 15.8136 20.612 16.0215C21.227 16.1085 21.8356 16.4083 22.3926 16.7097C23.1222 17.103 23.2239 17.8121 22.5378 18.2118C21.3126 18.9274 20.1487 19.7381 18.5748 19.7704C15.5254 19.8316 12.4776 20.0701 9.43307 20.2942C7.27316 20.4537 5.28596 20.0379 3.4489 18.8743C3.05663 18.626 2.58042 18.51 2.01703 18.2811L2.01541 18.2795Z" fill="#01C476"/>
</svg>
