<svg width="234" height="234" viewBox="0 0 234 234" fill="none" xmlns="http://www.w3.org/2000/svg">
<g clip-path="url(#clip0_981_2747)">
<path d="M233.393 217.824C233.393 212.236 233.393 217.824 233.393 207.703V194.231C233.393 184.5 233.393 190.088 233.393 184.5C233.393 178.911 233.393 184.5 233.393 173.994V160.522C233.393 150 233.393 155.588 233.393 150C233.393 144.412 233.393 150 233.393 140.286V126.814C233.393 116.5 233.393 122.089 233.393 116.5C233.393 110.912 233.393 116.5 233.393 106.577V93.1051C233.393 83 233.393 88.5883 233.393 83C233.393 77.4117 233.393 83 233.393 72.8683V59.3965C233.393 49 233.393 54.5882 233.393 49C233.393 43.4117 233.393 49 233.393 39.1597V25.6879C233.393 16.5 233.393 20.5882 233.393 15C233.393 9.41169 233.393 15 233.393 5.45105V0H227.937C227.937 5.58826 223.407 10.1184 217.819 10.1184C212.231 10.1184 207.7 5.58826 207.7 0H194.229C194.229 5.58826 189.699 10.1184 184.11 10.1184C178.522 10.1184 173.992 5.58826 173.992 0H160.52C160.52 5.58826 155.99 10.1184 150.402 10.1184C144.813 10.1184 140.283 5.58826 140.283 0H126.811C126.811 5.58826 122.281 10.1184 116.693 10.1184C111.105 10.1184 106.575 5.58826 106.575 0H93.1028C93.1028 5.58826 88.5726 10.1184 82.9844 10.1184C77.3961 10.1184 72.866 5.58826 72.866 0H59.3942C59.3942 5.58826 54.864 10.1184 49.2758 10.1184C43.6875 10.1184 39.162 5.58826 39.162 0H25.6902C25.6902 5.58826 21.16 10.1184 15.5718 10.1184C9.98352 10.1184 5.4557 5.58826 5.4557 0H0V5.4557C0 16.5 0 10.9117 0 16.5C0 22.0883 0 16.5 0 25.6902V39.162C0 48.5 0 42.9117 0 48.5C0 54.0883 0 48.5 0 59.3988V72.8706C0 82.5 0 76.9118 0 82.5C0 88.0883 0 82.5 0 93.1074V106.579C0 116.5 0 110.911 0 116.5C0 122.088 0 116.5 0 126.816V140.288C0 150 0 144.412 0 150C0 155.589 0 150 0 160.525V173.997C0 184 0 178.412 0 184C0 189.588 0 184 0 194.233V207.705C0 218.5 0 212.911 0 218.5C0 224.088 0 218.5 0 227.942V233.398H5.4557C15.5 233.398 9.91175 233.398 15.5 233.398C21.0883 233.398 15.5 233.398 25.6925 233.398H39.1643C49.5 233.398 43.9118 233.398 49.5 233.398C55.0883 233.398 49.5 233.398 59.4011 233.398H72.873C83 233.398 77.4117 233.398 83 233.398C88.5882 233.398 83 233.398 93.1098 233.398H106.582C116.5 233.398 110.912 233.398 116.5 233.398C122.088 233.398 116.5 233.398 126.818 233.398H140.29C150.5 233.398 144.911 233.398 150.5 233.398C156.088 233.398 150.5 233.398 160.527 233.398H173.999C184 233.398 178.412 233.398 184 233.398C189.589 233.398 184 233.398 194.236 233.398H207.707C218 233.398 212.412 233.398 218 233.398C223.588 233.398 218 233.398 227.944 233.398H233.4V227.942C233.393 217.824 233.393 223.412 233.393 217.824Z" fill="black"/>
</g>
<defs>
<clipPath id="clip0_981_2747">
<rect width="234" height="234" fill="white"/>
</clipPath>
</defs>
</svg>
