<svg width="95" height="7" viewBox="0 0 95 7" fill="none" xmlns="http://www.w3.org/2000/svg">
<path d="M69.0295 0.912026C69.3411 0.836977 69.731 0.674804 70.1253 0.660139C71.3568 0.613558 72.5898 0.617008 73.822 0.617871C74.0275 0.617871 74.3107 0.477263 74.3833 0.9103C74.392 0.962057 74.5532 1.00864 74.6418 1.00519C75.5742 0.971546 76.5058 0.92669 77.5936 0.878383C77.3314 0.689469 77.1942 0.590267 77.057 0.491928C77.0591 0.449659 77.0606 0.407391 77.0628 0.365985C78.6065 0.365984 80.151 0.391001 81.6948 0.360809C85.1737 0.292661 88.6519 0.200361 92.1308 0.11151C92.5599 0.100296 93.0384 -0.101558 93.4022 0.0666536C93.7334 0.219338 93.9635 0.734324 94.1966 1.12509C94.5611 1.73669 94.7645 2.4311 94.9358 3.15657C95.0527 3.64999 95.0237 4.04076 94.7332 4.55402C93.1946 4.55402 91.6036 4.55488 90.0134 4.55402C86.92 4.55143 83.826 4.54453 80.7327 4.54712C79.3581 4.54798 77.9828 4.55488 76.6089 4.58335C74.0014 4.6377 71.3946 4.7231 68.7877 4.76882C67.485 4.79124 66.1816 4.75329 64.8782 4.74466C63.4049 4.73431 61.9309 4.7231 60.4575 4.71878C59.0568 4.71447 57.6561 4.69377 56.2561 4.7231C54.326 4.76364 52.3967 4.83783 50.4674 4.91201C48.9498 4.96981 47.4314 5.02329 45.9152 5.12508C43.8298 5.26483 41.745 5.37524 39.6567 5.43562C38.2647 5.47617 36.8756 5.64697 35.4843 5.74444C34.618 5.80569 33.751 5.85141 32.8833 5.88419C31.2284 5.94544 29.5721 5.97304 27.918 6.05068C26.205 6.1309 24.4935 6.27237 22.7806 6.35259C20.4163 6.46301 18.0513 6.5303 15.687 6.6364C14.0249 6.71145 12.3642 6.84774 10.7021 6.90726C9.03633 6.96678 7.36913 6.9711 5.70192 6.98835C4.69405 6.9987 3.68545 7.01336 2.6783 6.97541C2.17799 6.95643 1.66244 6.89432 1.18827 6.72007C0.748958 6.55962 0.405494 6.16886 0.232674 5.61764C0.0184647 4.93444 -0.0192926 4.23227 0.00757436 3.56201C2.65506 3.56201 5.27495 3.59996 7.89339 3.54993C9.99337 3.50939 12.0919 3.36619 14.1912 3.26181C16.6542 3.13932 19.1165 3.0151 21.5788 2.88312C23.3891 2.78565 25.1993 2.67609 27.0089 2.56999C29.2526 2.43801 31.4978 2.325 33.7401 2.16369C36.2932 1.97996 38.8434 1.72031 41.3972 1.55468C43.6889 1.40631 45.9842 1.34161 48.2781 1.23637C48.9519 1.20532 49.6258 1.14235 50.2996 1.12078C55.1313 0.967234 59.9623 0.817138 64.794 0.673942C65.8055 0.64375 66.8177 0.62391 67.8285 0.646338C68.1887 0.654101 68.5459 0.80161 69.0266 0.913751L69.0295 0.912026ZM57.2981 1.20791C57.293 1.14321 57.2879 1.07765 57.2829 1.01295C57.166 1.04056 57.0498 1.06816 56.9329 1.09577C56.9387 1.13372 56.9438 1.17081 56.9496 1.20877L57.2981 1.20877L57.2981 1.20791Z" fill="#01C476"/>
</svg>
